<svg width="523" height="504" viewBox="0 0 523 504" fill="none" xmlns="http://www.w3.org/2000/svg">
<g clip-path="url(#clip0_88_7)">
<path d="M136.704 74.5928L138.522 99.0183L147.074 102L155.678 99.0196L157.445 74.5928H136.704ZM152.892 82.8808H143.704L143.902 85.6434H152.771L152.05 94.6399L147.157 96.5324L142.225 94.5385L141.893 90.5206H144.225L144.409 92.4542L147.175 93.571L149.878 92.5254L150.22 88.4075H141.792L141.145 80.1167H153.142L152.892 82.8808Z" fill="#41644A"/>
</g>
<path d="M136.75 299.5L138.723 321.793L148 324.5L157.335 321.794L159.25 299.5H136.75ZM153.375 317.903L148.009 319.408H148L142.629 317.903L142.258 313.944H144.892L145.08 315.851L147.999 316.65L150.924 315.85L151.23 312.038H142.142L141.909 309.53H151.459L151.676 307.023H141.655L141.435 304.515H154.567L153.375 317.903Z" fill="#41644A"/>
<path d="M140.5 187.75C139.505 187.75 138.552 188.145 137.848 188.848C137.145 189.552 136.75 190.506 136.75 191.5V206.5C136.75 207.495 137.145 208.449 137.848 209.152C138.552 209.855 139.505 210.25 140.5 210.25H155.5C156.495 210.25 157.448 209.855 158.152 209.152C158.855 208.449 159.25 207.495 159.25 206.5V191.5C159.25 190.506 158.855 189.552 158.152 188.848C157.448 188.145 156.495 187.75 155.5 187.75H140.5ZM149.667 204.069C150.567 204.794 151.466 205.151 152.362 205.141C152.913 205.141 153.334 205.041 153.628 204.839C153.764 204.75 153.875 204.628 153.95 204.483C154.025 204.338 154.06 204.177 154.054 204.014C154.056 203.836 154.019 203.661 153.945 203.499C153.872 203.338 153.764 203.194 153.629 203.079C153.335 202.823 152.78 202.566 151.964 202.309C150.983 202.026 150.227 201.659 149.695 201.209C149.173 200.759 148.908 200.131 148.898 199.325C148.898 198.564 149.227 197.927 149.888 197.414C150.529 196.901 151.35 196.644 152.35 196.644C153.743 196.644 154.861 196.983 155.704 197.661L154.741 199.16C154.395 198.891 153.997 198.694 153.573 198.583C153.191 198.455 152.792 198.385 152.39 198.376C151.915 198.376 151.535 198.463 151.249 198.638C150.965 198.813 150.824 199.042 150.824 199.325C150.824 199.637 150.997 199.903 151.345 200.123C151.695 200.334 152.291 200.568 153.133 200.824C154.15 201.126 154.874 201.53 155.305 202.034C155.736 202.538 155.951 203.18 155.951 203.959C155.951 204.756 155.644 205.444 155.03 206.021C154.425 206.59 153.545 206.888 152.39 206.915C150.878 206.915 149.613 206.461 148.595 205.554L149.667 204.069ZM142.755 204.866C143.048 205.05 143.401 205.141 143.814 205.141C144.245 205.141 144.602 205.018 144.886 204.77C145.17 204.513 145.312 204.069 145.312 203.436V196.809H147.169V203.794C147.141 204.876 146.83 205.655 146.234 206.131C145.908 206.407 145.529 206.613 145.12 206.736C144.741 206.852 144.347 206.912 143.951 206.915C143.264 206.915 142.654 206.796 142.122 206.558C141.554 206.302 141.077 205.848 140.692 205.196L141.985 204.138C142.223 204.458 142.479 204.701 142.755 204.866Z" fill="#41644A"/>
<path fill-rule="evenodd" clip-rule="evenodd" d="M257.491 147.073L257.477 147.075L257.388 147.119L257.363 147.124L257.346 147.119L257.257 147.075C257.244 147.071 257.234 147.073 257.227 147.081L257.222 147.094L257.201 147.629L257.207 147.654L257.22 147.67L257.35 147.763L257.368 147.768L257.383 147.763L257.513 147.67L257.528 147.65L257.533 147.629L257.512 147.095C257.509 147.082 257.502 147.074 257.491 147.073ZM257.822 146.931L257.806 146.934L257.575 147.05L257.562 147.063L257.558 147.076L257.581 147.614L257.587 147.629L257.597 147.638L257.848 147.754C257.864 147.758 257.876 147.755 257.885 147.744L257.89 147.726L257.847 146.959C257.843 146.944 257.835 146.935 257.822 146.931ZM256.928 146.934C256.923 146.93 256.916 146.929 256.91 146.931C256.904 146.932 256.898 146.936 256.895 146.941L256.887 146.959L256.845 147.726C256.846 147.741 256.853 147.751 256.866 147.756L256.885 147.754L257.136 147.638L257.148 147.628L257.153 147.614L257.175 147.076L257.171 147.061L257.158 147.049L256.928 146.934Z" fill="#41644A"/>
<path fill-rule="evenodd" clip-rule="evenodd" d="M263.625 121.093C265.528 122.19 265.917 124.618 265.6 127.05C265.562 127.352 265.511 127.661 265.449 127.978C265.755 128.083 266.048 128.193 266.328 128.31C268.593 129.253 270.5 130.804 270.5 133C270.5 135.196 268.593 136.748 266.328 137.69C266.047 137.807 265.754 137.918 265.449 138.023C265.511 138.339 265.562 138.648 265.6 138.95C265.917 141.383 265.528 143.81 263.625 144.908C261.724 146.006 259.425 145.13 257.477 143.64C257.229 143.449 256.986 143.25 256.75 143.044C256.506 143.256 256.263 143.455 256.023 143.64C254.075 145.13 251.778 146.006 249.875 144.908C247.974 143.81 247.584 141.383 247.9 138.95C247.941 138.639 247.992 138.33 248.052 138.023C247.746 137.918 247.452 137.807 247.172 137.69C244.907 136.748 243 135.196 243 133C243 130.804 244.907 129.253 247.172 128.31C247.453 128.193 247.747 128.083 248.052 127.978C247.99 127.661 247.939 127.352 247.9 127.05C247.584 124.618 247.974 122.19 249.875 121.093C251.776 119.995 254.075 120.87 256.023 122.361C256.264 122.545 256.507 122.743 256.75 122.956C256.994 122.744 257.237 122.545 257.477 122.361C259.426 120.87 261.722 119.994 263.625 121.093ZM250.475 138.671C250.438 138.878 250.406 139.078 250.38 139.273C250.089 141.514 250.637 142.46 251.126 142.743C251.616 143.025 252.71 143.028 254.505 141.655C254.666 141.531 254.824 141.403 254.979 141.271C254.362 140.572 253.782 139.842 253.24 139.084C252.312 138.993 251.389 138.856 250.475 138.671ZM263.029 138.671C262.165 138.847 261.244 138.985 260.264 139.084C259.688 139.884 259.108 140.613 258.525 141.271C258.684 141.407 258.842 141.535 258.998 141.654C260.792 143.028 261.887 143.025 262.376 142.743C262.866 142.46 263.414 141.514 263.122 139.273C263.096 139.071 263.065 138.871 263.029 138.671ZM248.7 130.4C248.509 130.468 248.32 130.541 248.132 130.619C246.045 131.486 245.5 132.435 245.5 133C245.5 133.565 246.046 134.514 248.132 135.381C248.314 135.456 248.503 135.529 248.7 135.6C248.998 134.717 249.34 133.849 249.726 133C249.341 132.151 248.997 131.284 248.7 130.4ZM264.8 130.4C264.503 131.284 264.161 132.151 263.775 133C264.18 133.896 264.523 134.766 264.8 135.6C264.991 135.532 265.18 135.459 265.367 135.381C267.455 134.514 268 133.565 268 133C268 132.435 267.455 131.488 265.367 130.619C265.18 130.541 264.991 130.468 264.8 130.4ZM256.75 131.125C256.253 131.125 255.776 131.323 255.424 131.674C255.073 132.026 254.875 132.503 254.875 133C254.875 133.497 255.073 133.974 255.424 134.326C255.776 134.678 256.253 134.875 256.75 134.875C257.247 134.875 257.724 134.678 258.076 134.326C258.427 133.974 258.625 133.497 258.625 133C258.625 132.503 258.427 132.026 258.076 131.674C257.724 131.323 257.247 131.125 256.75 131.125ZM254.504 124.346C252.709 122.973 251.615 122.975 251.125 123.258C250.635 123.54 250.087 124.486 250.379 126.728C250.404 126.923 250.435 127.123 250.474 127.329C251.336 127.153 252.258 127.015 253.239 126.916C253.781 126.158 254.361 125.428 254.977 124.729C254.823 124.598 254.665 124.47 254.504 124.346ZM258.998 124.346C258.836 124.47 258.678 124.597 258.523 124.729C259.108 125.387 259.688 126.116 260.263 126.916C261.241 127.014 262.166 127.154 263.028 127.329C263.064 127.13 263.095 126.93 263.121 126.729C263.414 124.488 262.865 123.54 262.375 123.258C261.886 122.975 260.791 122.974 258.996 124.346H258.998Z" fill="#41644A"/>
<path d="M258.785 233.188C258.569 233.065 258.326 233 258.078 233C257.829 233 257.586 233.065 257.37 233.188L245.694 239.97C245.25 240.221 245 240.695 245 241.198V254.789C245 255.291 245.277 255.766 245.693 256.017L257.37 262.799C257.585 262.922 257.829 262.987 258.077 262.987C258.325 262.987 258.569 262.922 258.785 262.799L270.461 256.017C270.905 255.766 271.154 255.291 271.154 254.789V241.198C271.154 240.696 270.877 240.221 270.461 239.97L258.785 233.188Z" fill="#41644A"/>
<g clip-path="url(#clip1_88_7)">
<path d="M368.969 287H353.031C349.148 287 346 290.148 346 294.031V309.969C346 313.852 349.148 317 353.031 317H368.969C372.852 317 376 313.852 376 309.969V294.031C376 290.148 372.852 287 368.969 287Z" fill="#41644A"/>
<path d="M372.719 308.438C372.378 308.567 372.001 308.567 371.66 308.437C371.319 308.308 371.037 308.058 370.868 307.734C369.806 306.145 368.633 304.626 367.506 303.076L367.017 302.424C365.675 304.222 364.333 305.949 363.108 307.741C362.948 308.05 362.682 308.29 362.358 308.417C362.035 308.544 361.676 308.55 361.349 308.432L366.385 301.675L361.7 295.569C362.038 295.448 362.407 295.446 362.745 295.565C363.083 295.683 363.37 295.915 363.558 296.221C364.646 297.811 365.851 299.329 367.05 300.938C368.255 299.342 369.448 297.817 370.562 296.24C370.722 295.936 370.989 295.702 371.311 295.582C371.633 295.462 371.988 295.464 372.308 295.589L370.49 298C369.676 299.075 368.874 300.156 368.027 301.206C367.959 301.267 367.905 301.341 367.867 301.425C367.83 301.509 367.81 301.599 367.81 301.691C367.81 301.783 367.83 301.873 367.867 301.957C367.905 302.04 367.959 302.115 368.027 302.176C369.585 304.242 371.129 306.314 372.719 308.438ZM349.281 301.59C349.418 300.938 349.503 300.228 349.692 299.564C350.819 295.556 355.413 293.888 358.573 296.371C360.423 297.824 360.886 299.883 360.795 302.203H350.369C350.2 306.347 353.191 308.849 357.016 307.572C357.636 307.35 358.191 306.977 358.632 306.486C359.072 305.996 359.383 305.404 359.537 304.763C359.739 304.112 360.065 304.001 360.684 304.19C360.582 304.983 360.302 305.743 359.864 306.412C359.426 307.081 358.842 307.643 358.156 308.054C357.022 308.674 355.722 308.919 354.44 308.755C353.159 308.592 351.962 308.027 351.021 307.142C350.09 306.095 349.527 304.772 349.418 303.375C349.418 303.154 349.333 302.932 349.288 302.724C349.284 302.346 349.281 301.968 349.281 301.59ZM350.382 301.31H359.811C359.752 298.306 357.856 296.175 355.328 296.156C352.513 296.117 350.5 298.202 350.376 301.297L350.382 301.31Z" fill="white"/>
</g>
<g clip-path="url(#clip2_88_7)">
<path d="M361 118C357.022 118 353.206 119.58 350.393 122.394C347.58 125.207 346 129.022 346 133C346 136.978 347.58 140.794 350.393 143.607C353.206 146.42 357.022 148 361 148C363.964 147.994 366.86 147.11 369.322 145.46L357.019 129.564V138.995H355V127H357.524L370.912 144.246C372.51 142.84 373.789 141.11 374.667 139.171C375.544 137.232 375.998 135.128 376 133C376 129.022 374.42 125.207 371.607 122.394C368.794 119.58 364.978 118 361 118ZM365.166 127H367.167V138.432L365.166 135.806V127Z" fill="#41644A"/>
</g>
<g clip-path="url(#clip3_88_7)">
<path d="M482.969 224H467.031C463.148 224 460 227.148 460 231.031V246.969C460 250.852 463.148 254 467.031 254H482.969C486.852 254 490 250.852 490 246.969V231.031C490 227.148 486.852 224 482.969 224Z" fill="#41644A"/>
<path d="M480.059 236.608C478.825 231.161 476.251 229.711 475.595 228.686C475.324 228.235 475.084 227.765 474.877 227.281C474.842 227.765 474.778 228.07 474.367 228.437C473.541 229.173 470.034 232.032 469.739 238.221C469.464 243.991 473.981 247.549 474.578 247.917C475.036 248.143 475.595 247.922 475.868 247.715C478.045 246.22 481.021 242.236 480.062 236.608" fill="#10AA50"/>
<path d="M475.064 244.844C474.95 246.273 474.869 247.103 474.58 247.919C474.58 247.919 474.77 249.279 474.903 250.719H475.374C475.486 249.705 475.658 248.698 475.887 247.703C475.278 247.403 475.087 246.098 475.064 244.844Z" fill="#B8C4C2"/>
<path d="M475.887 247.704C475.271 247.42 475.092 246.086 475.065 244.844C475.217 242.796 475.262 240.74 475.198 238.687C475.166 237.609 475.213 228.707 474.933 227.404C475.125 227.845 475.346 228.274 475.595 228.685C476.251 229.711 478.826 231.161 480.06 236.608C481.021 242.227 478.062 246.2 475.887 247.704Z" fill="#12924F"/>
</g>
<path d="M40.9 204C41.1 202.35 41.25 200.7 41.25 199C41.25 197.3 41.1 195.65 40.9 194H49.35C49.75 195.6 50 197.275 50 199C50 200.725 49.75 202.4 49.35 204M36.475 217.9C37.975 215.125 39.125 212.125 39.925 209H47.3C44.8779 213.171 41.0353 216.33 36.475 217.9ZM35.85 204H24.15C23.9 202.35 23.75 200.7 23.75 199C23.75 197.3 23.9 195.625 24.15 194H35.85C36.075 195.625 36.25 197.3 36.25 199C36.25 200.7 36.075 202.35 35.85 204ZM30 218.9C27.925 215.9 26.25 212.575 25.225 209H34.775C33.75 212.575 32.075 215.9 30 218.9ZM20 189H12.7C15.0966 184.818 18.9366 181.653 23.5 180.1C22 182.875 20.875 185.875 20 189ZM12.7 209H20C20.875 212.125 22 215.125 23.5 217.9C18.9457 216.331 15.1107 213.171 12.7 209ZM10.65 204C10.25 202.4 10 200.725 10 199C10 197.275 10.25 195.6 10.65 194H19.1C18.9 195.65 18.75 197.3 18.75 199C18.75 200.7 18.9 202.35 19.1 204M30 179.075C32.075 182.075 33.75 185.425 34.775 189H25.225C26.25 185.425 27.925 182.075 30 179.075ZM47.3 189H39.925C39.1414 185.904 37.9828 182.915 36.475 180.1C41.075 181.675 44.9 184.85 47.3 189ZM30 174C16.175 174 5 185.25 5 199C5 205.631 7.63392 211.989 12.3223 216.678C14.6438 218.999 17.3998 220.841 20.4329 222.097C23.4661 223.353 26.717 224 30 224C36.6304 224 42.9893 221.366 47.6777 216.678C52.3661 211.989 55 205.631 55 199C55 195.717 54.3534 192.466 53.097 189.433C51.8406 186.4 49.9991 183.644 47.6777 181.322C45.3562 179.001 42.6002 177.16 39.5671 175.903C36.5339 174.647 33.283 174 30 174Z" fill="#41644A"/>
<g clip-path="url(#clip4_88_7)">
<path d="M482.969 354H467.031C463.148 354 460 357.148 460 361.031V376.969C460 380.852 463.148 384 467.031 384H482.969C486.852 384 490 380.852 490 376.969V361.031C490 357.148 486.852 354 482.969 354Z" fill="#41644A"/>
<path d="M483.845 371.424C481.464 371.915 481.291 371.109 481.291 371.109C483.807 367.376 484.859 362.638 483.951 361.479C481.476 358.315 477.19 359.812 477.118 359.851L477.095 359.855C476.572 359.75 476.04 359.694 475.506 359.689C474.428 359.673 473.611 359.972 472.989 360.442C472.989 360.442 465.345 357.293 465.701 364.403C465.776 365.916 467.868 375.856 470.364 372.849C471.284 371.743 472.165 370.815 472.165 370.815C472.602 371.105 473.127 371.254 473.677 371.2L473.719 371.164C473.707 371.306 473.713 371.45 473.737 371.591C473.094 372.309 473.284 372.435 471.998 372.7C470.698 372.968 471.463 373.445 471.96 373.57C472.565 373.722 473.964 373.936 474.91 372.613L474.872 372.763C475.124 372.965 475.301 374.076 475.271 375.083C475.241 376.09 475.222 376.78 475.419 377.321C475.617 377.861 475.815 379.076 477.504 378.721C478.916 378.419 479.646 377.634 479.749 376.327C479.822 375.397 479.985 375.534 479.997 374.704L480.128 374.31C480.279 373.049 480.153 372.643 481.022 372.832L481.234 372.851C481.874 372.88 482.712 372.748 483.203 372.52C484.262 372.029 484.89 371.208 483.846 371.424H483.845Z" fill="#336791"/>
<path d="M477.118 359.695C476.854 359.777 481.373 358.043 483.942 361.325C484.849 362.484 483.798 367.222 481.282 370.954M475.012 372.022C474.946 374.367 475.028 376.728 475.257 377.295C475.486 377.862 475.978 378.984 477.668 378.623C479.08 378.321 479.594 377.735 479.817 376.442L480.338 372.308L475.012 372.022ZM472.987 360.266C472.987 360.266 465.337 357.138 465.693 364.248C465.769 365.761 467.86 375.701 470.356 372.694C471.268 371.595 472.092 370.736 472.092 370.736L472.987 360.266Z" stroke="white" stroke-width="0.314625" stroke-linecap="round" stroke-linejoin="round"/>
<path d="M481.283 370.953C481.283 370.953 481.448 371.76 483.837 371.268C484.881 371.052 484.252 371.872 483.194 372.363C482.326 372.767 480.378 372.87 480.346 372.314C480.264 370.876 481.371 371.313 481.291 370.953C481.218 370.628 480.722 370.31 480.396 369.516C480.11 368.824 476.474 363.509 481.405 364.297C481.586 364.26 480.119 359.601 475.505 359.533C470.891 359.466 471.037 365.206 471.037 365.206" stroke="white" stroke-width="0.314625" stroke-linecap="round" stroke-linejoin="bevel"/>
<path d="M473.72 371.446C473.077 372.164 473.267 372.29 471.981 372.555C470.681 372.822 471.446 373.299 471.943 373.425C472.548 373.576 473.947 373.791 474.893 372.466C475.182 372.063 474.892 371.42 474.496 371.257C474.305 371.178 474.05 371.079 473.722 371.446L473.72 371.446Z" stroke="white" stroke-width="0.314625" stroke-linejoin="round"/>
<path d="M473.678 371.433C473.612 371.01 473.816 370.509 474.035 369.92C474.363 369.039 475.119 368.157 474.514 365.358C474.064 363.273 471.037 364.924 471.037 365.206C471.037 365.489 471.174 366.64 470.988 367.979C470.743 369.728 472.1 371.206 473.662 371.055" stroke="white" stroke-width="0.314625" stroke-linecap="round" stroke-linejoin="round"/>
<path d="M472.958 365.164C472.944 365.261 473.135 365.519 473.383 365.553C473.631 365.588 473.843 365.387 473.857 365.29C473.871 365.192 473.68 365.087 473.432 365.052C473.184 365.018 472.97 365.069 472.958 365.164Z" fill="white" stroke="white" stroke-width="0.105"/>
<path d="M480.509 364.968C480.522 365.064 480.332 365.322 480.084 365.356C479.836 365.391 479.622 365.19 479.61 365.093C479.598 364.995 479.787 364.89 480.035 364.855C480.283 364.821 480.496 364.872 480.509 364.968Z" fill="white" stroke="white" stroke-width="0.0523125"/>
<path d="M481.396 364.299C481.437 365.057 481.233 365.572 481.207 366.379C481.169 367.551 481.765 368.892 480.866 370.235" stroke="white" stroke-width="0.314625" stroke-linecap="round" stroke-linejoin="round"/>
</g>
<path d="M45.4992 180.501L146.499 101.501M55.4997 200L136.5 200M49.4998 216.5L148.5 299.5M257 145L161 200L257 232.5M272.5 249L362 286.5M272.5 132.5L344.5 132.5M474 352.5L377.5 303L474 255.5" stroke="#0D4715" stroke-opacity="0.25" stroke-width="0.5"/>
<defs>
<clipPath id="clip0_88_7">
<rect width="30" height="30" fill="white" transform="translate(133 72.0001)"/>
</clipPath>
<clipPath id="clip1_88_7">
<rect width="30" height="30" fill="white" transform="translate(346 287)"/>
</clipPath>
<clipPath id="clip2_88_7">
<rect width="30" height="30" fill="white" transform="translate(346 118)"/>
</clipPath>
<clipPath id="clip3_88_7">
<rect width="30" height="30" fill="white" transform="translate(460 224)"/>
</clipPath>
<clipPath id="clip4_88_7">
<rect width="30" height="30" fill="white" transform="translate(460 354)"/>
</clipPath>
</defs>
</svg>
